<?xml version="1.0" encoding="utf-8"?>
<!-- Generator: Adobe Illustrator 21.1.0, SVG Export Plug-In . SVG Version: 6.00 Build 0)  -->
<svg version="1.1" id="Layer_1" xmlns="http://www.w3.org/2000/svg" xmlns:xlink="http://www.w3.org/1999/xlink" x="0px" y="0px"
	 viewBox="0 0 64 64" enable-background="new 0 0 64 64" xml:space="preserve">
<g>
	<g>
		<path fill="#8196A4" d="M31.6,0.8c5.8,0,11.3,1.4,16.3,4.1s8.9,6.5,11.7,11.2c2.9,4.9,4.4,10.3,4.4,16.1c0,7.1-2,13.5-6,19.2
			S48.8,61,42.3,63.1c-0.7,0.2-1.2,0.1-1.6-0.3s-0.6-0.8-0.6-1.3V50.7c0-2.8-0.7-4.7-2.2-5.9c3.2-0.3,5.5-0.8,7.1-1.3
			c2.4-0.9,4.3-2.2,5.5-3.9c1.5-2.2,2.2-5.3,2.2-9.2c0-1.6-0.3-3.1-0.9-4.3c-0.4-0.9-1.2-1.9-2.5-3.2c0.3-0.9,0.6-1.9,0.6-3.1
			c0.1-1.9-0.2-3.8-0.9-5.7c-0.9-0.3-2.1-0.1-3.6,0.5c-1,0.4-2.2,1-3.6,1.8l-1.7,1.2c-2.7-0.8-5.4-1.2-8.2-1.2
			c-2.8,0-5.5,0.4-8.1,1.2l-1.7-1.2c-1.4-0.8-2.6-1.4-3.7-1.8c-1.5-0.6-2.7-0.8-3.5-0.5c-0.8,1.9-1.1,3.8-0.9,5.7
			c0,1.2,0.2,2.2,0.5,3c-1,1.3-1.8,2.5-2.3,3.5c-0.5,1.1-0.7,2.4-0.7,4.1c0,3.9,0.7,6.9,2.1,9c1.2,1.8,3,3.1,5.4,4
			c1.5,0.5,3.9,0.9,7,1.3c-1.1,1-1.8,2.5-2.1,4.4c-1.5,0.7-2.9,0.9-4.3,0.8c-2.2-0.2-4-1.3-5.2-3.5c-0.5-0.9-1.2-1.7-2.1-2.3
			c-0.6-0.3-1.2-0.6-1.9-0.9l-0.9-0.1c-0.9,0-1.4,0.2-1.5,0.5s0.2,0.6,0.6,1l0.6,0.5c0.6,0.3,1.2,0.9,1.8,1.7
			c0.5,0.6,0.9,1.3,1.3,2.1l0.5,1c0.4,1.3,1.2,2.3,2.5,3c1,0.6,2.3,1,3.7,1.2c1,0.1,2.1,0,3.2-0.1l1.4-0.1l0.1,7.9
			c0,0.5-0.2,0.9-0.6,1.3s-0.9,0.4-1.6,0.3c-6.5-2.2-11.8-6-15.9-11.7S0,39.4,0,32.3c0-5.8,1.4-11.2,4.1-16s6.5-8.6,11.4-11.4
			S25.7,0.8,31.6,0.8z M11.1,44.3c0.2-0.2,0.4-0.2,0.6-0.1c0.3,0.1,0.3,0.3,0.3,0.5s-0.3,0.2-0.6,0.1C11.1,44.6,11,44.5,11.1,44.3z
			 M12.5,45.3c0.2-0.2,0.4-0.1,0.6,0.1s0.3,0.5,0.1,0.6s-0.4,0.1-0.6-0.1C12.4,45.7,12.3,45.5,12.5,45.3z M13.8,47
			c0.2-0.1,0.3-0.1,0.5-0.1s0.2,0.2,0.3,0.3c0.3,0.3,0.3,0.6,0,0.8c-0.1,0.1-0.2,0.1-0.3,0c-0.1-0.1-0.3-0.2-0.5-0.3
			C13.6,47.3,13.6,47.1,13.8,47z M15.4,48.8c0.1-0.1,0.2-0.1,0.4-0.1s0.3,0.1,0.5,0.3s0.2,0.3,0.3,0.5s0,0.3-0.1,0.4
			c-0.3,0.3-0.6,0.2-0.9-0.1c-0.2-0.2-0.3-0.3-0.3-0.5S15.3,48.9,15.4,48.8z M17.4,50.5c0.1-0.3,0.3-0.5,0.8-0.3s0.6,0.3,0.6,0.5
			s-0.2,0.4-0.3,0.5s-0.3,0.1-0.5,0s-0.3-0.2-0.5-0.3S17.3,50.6,17.4,50.5z M21.4,51c0-0.1-0.1-0.2-0.2-0.3s-0.3-0.1-0.6-0.1
			c-0.4,0-0.6,0.2-0.6,0.5s0.2,0.5,0.7,0.5C21.2,51.5,21.4,51.3,21.4,51z M23.1,50.2c0.4,0,0.7,0.1,0.7,0.4s-0.2,0.5-0.6,0.6
			c-0.2,0-0.3,0-0.5-0.1s-0.2-0.2-0.3-0.5S22.7,50.3,23.1,50.2z"/>
	</g>
</g>
</svg>
