<?xml version="1.0" encoding="utf-8"?>
<!-- Generator: Adobe Illustrator 21.1.0, SVG Export Plug-In . SVG Version: 6.00 Build 0)  -->
<svg version="1.1" id="Layer_1" xmlns="http://www.w3.org/2000/svg" xmlns:xlink="http://www.w3.org/1999/xlink" x="0px" y="0px"
	 viewBox="0 0 64 64" enable-background="new 0 0 64 64" xml:space="preserve">
<g>
	<g>
		<path fill="#8196A4" d="M59.4,0c1.2,0,2.3,0.5,3.2,1.4s1.4,2,1.4,3.2v54.9c0,1.2-0.5,2.3-1.4,3.2s-2,1.4-3.2,1.4H4.6
			c-1.2,0-2.3-0.5-3.2-1.4S0,60.7,0,59.4V4.6c0-1.2,0.5-2.3,1.4-3.2S3.3,0,4.6,0H59.4z M14.6,20.1c1.5,0,2.8-0.5,3.9-1.6
			s1.6-2.4,1.6-3.9s-0.5-2.8-1.6-3.9s-2.4-1.6-3.9-1.6s-2.8,0.5-3.9,1.6s-1.6,2.4-1.6,3.9s0.5,2.8,1.6,3.9S13,20.1,14.6,20.1z
			 M19.3,54.9h0.1V24.3H9.9v30.6H19.3z M54.9,54.9V38.1c0-4.8-0.7-8.2-2-10.4C51,25,48,23.6,43.6,23.6c-2.2,0-4.1,0.5-5.9,1.6
			c-1.4,0.9-2.5,2-3.1,3.3h-0.1v-4.1h-9.1v30.6h9.4V39.7c0-2.4,0.3-4.2,1-5.4c1-1.6,2.5-2.4,4.7-2.4c2.2,0,3.6,0.9,4.3,2.7
			c0.5,1.1,0.7,3,0.7,5.4v14.9H54.9z"/>
	</g>
</g>
</svg>
