<?xml version="1.0" encoding="utf-8"?>
<!-- Generator: Adobe Illustrator 21.1.0, SVG Export Plug-In . SVG Version: 6.00 Build 0)  -->
<svg version="1.1" id="Layer_1" xmlns="http://www.w3.org/2000/svg" xmlns:xlink="http://www.w3.org/1999/xlink" x="0px" y="0px"
	 viewBox="0 0 64 64" enable-background="new 0 0 64 64" xml:space="preserve">
<g>
	<path fill="#8196A4" d="M6.7,14.8l-6-7.1V6.6h18.6l14.3,31.5L46.3,6.6H64v1.1l-5.2,4.9c-0.4,0.4-0.6,0.8-0.5,1.5v36
		c-0.1,0.6,0.1,1.1,0.5,1.5l5,4.9v1.1H38.7v-1.1l5.2-5c0.3-0.3,0.4-0.5,0.5-0.6c0-0.1,0.1-0.4,0.1-0.9V20.8L30.1,57.3h-2L11.4,20.8
		v24.5c-0.1,1.1,0.2,2,0.9,2.8l6.7,8.2v1.1H0v-1.1L6.7,48c0.8-0.8,1.1-1.7,0.9-2.8V16.9C7.7,16.1,7.4,15.4,6.7,14.8z"/>
</g>
</svg>
