<?xml version="1.0" encoding="utf-8"?>
<!-- Generator: Adobe Illustrator 21.1.0, SVG Export Plug-In . SVG Version: 6.00 Build 0)  -->
<svg version="1.1" id="Layer_1" xmlns="http://www.w3.org/2000/svg" xmlns:xlink="http://www.w3.org/1999/xlink" x="0px" y="0px"
	 viewBox="0 0 64 64" enable-background="new 0 0 64 64" xml:space="preserve">
<g>
	<g>
		<path fill="#8196A4" d="M57.5,20.6c0,6-1.5,11.8-4.4,17.4c-3,5.9-7.2,10.6-12.6,14.1C34.6,56,27.8,58,20.1,58
			c-7.3,0-14-2-20.1-5.9c0.9,0.1,2,0.1,3.1,0.1c6.1,0,11.5-1.9,16.4-5.6c-2.9,0-5.5-0.9-7.7-2.6s-3.7-3.9-4.6-6.4
			c0.8,0.1,1.6,0.1,2.4,0.1c1.2,0,2.3-0.1,3.5-0.4c-3-0.7-5.5-2.2-7.5-4.6s-3-5.2-3-8.2v-0.2c1.8,1.1,3.8,1.7,5.9,1.8
			c-1.8-1.2-3.2-2.8-4.2-4.8s-1.6-4-1.6-6.3s0.6-4.5,1.9-6.6c3.2,4.1,7.2,7.3,11.9,9.8s9.7,3.8,15.1,4c-0.2-1-0.2-2-0.2-3
			c0-2.3,0.6-4.5,1.8-6.6c1.2-2,2.8-3.6,4.8-4.8S41.9,6,44.2,6c1.9,0,3.7,0.4,5.3,1.1s3.1,1.8,4.3,3c3-0.6,5.8-1.6,8.4-3.1
			c-1,3.1-2.9,5.5-5.8,7.2c2.5-0.3,5-1,7.5-2.1c-1.8,2.7-4,5-6.6,6.9C57.5,19.3,57.5,19.9,57.5,20.6z"/>
	</g>
</g>
</svg>
